<svg width="23" height="23" viewBox="0 0 23 23" fill="none" xmlns="http://www.w3.org/2000/svg">
<path d="M11.5 1.15C14.2657 1.15 16.8647 2.22525 18.8197 4.18025C20.7747 6.13525 21.85 8.73425 21.85 11.5C21.85 14.2657 20.7747 16.8647 18.8197 18.8197C16.8647 20.7747 14.2657 21.85 11.5 21.85C8.73425 21.85 6.13525 20.7747 4.18025 18.8197C2.22525 16.8647 1.15 14.2657 1.15 11.5C1.15 8.73425 2.22525 6.13525 4.18025 4.18025C6.13525 2.22525 8.73425 1.15 11.5 1.15ZM11.5 0C5.14625 0 0 5.14625 0 11.5C0 17.8538 5.14625 23 11.5 23C17.8538 23 23 17.8538 23 11.5C23 5.14625 17.8538 0 11.5 0Z" fill="#585858"/>
<path d="M10.0001 6.99998C10.7365 6.99998 11.3334 6.40303 11.3334 5.66665C11.3334 4.93027 10.7365 4.33331 10.0001 4.33331C9.2637 4.33331 8.66675 4.93027 8.66675 5.66665C8.66675 6.40303 9.2637 6.99998 10.0001 6.99998Z" fill="#585858"/>
<path d="M15.3199 12.8694C15.2898 12.7183 15.2082 12.5823 15.0891 12.4846C14.97 12.3869 14.8207 12.3334 14.6666 12.3334H11.9113L11.6253 10.3334H14.6666V9.00002H11.4353L11.3266 8.23869C11.3038 8.07989 11.2246 7.93463 11.1033 7.82956C10.9821 7.72449 10.827 7.66667 10.6666 7.66669H9.99995C9.9045 7.667 9.81022 7.68775 9.72345 7.72754C9.63668 7.76733 9.55944 7.82523 9.49692 7.89735C9.43439 7.96948 9.38803 8.05415 9.36096 8.14569C9.33388 8.23722 9.32672 8.33349 9.33995 8.42802L9.92462 12.5227C9.97149 12.8397 10.1304 13.1294 10.3726 13.3393C10.6148 13.5492 10.9241 13.6653 11.2446 13.6667H14.1199L14.6793 16.464C14.7419 16.7754 15.0153 17 15.3333 17H17.3333V15.6667H15.8793L15.3199 12.8694Z" fill="#585858"/>
<path d="M12.3399 14.6667C11.8473 15.6507 10.8399 16.3333 9.66659 16.3333C8.87121 16.3324 8.10866 16.0161 7.54624 15.4537C6.98382 14.8913 6.66747 14.1287 6.66659 13.3333C6.66744 12.7359 6.84664 12.1524 7.18122 11.6574C7.5158 11.1625 7.99053 10.7788 8.54459 10.5553L8.35192 9.20532C6.60325 9.76332 5.33325 11.4027 5.33325 13.3333C5.33325 15.7227 7.27725 17.6667 9.66659 17.6667C10.4097 17.6654 11.1401 17.4731 11.7875 17.1081C12.4349 16.7432 12.9775 16.2179 13.3633 15.5827L13.1806 14.6667H12.3399Z" fill="#585858"/>
</svg>
